<svg id="Layer_1" data-name="Layer 1" xmlns="http://www.w3.org/2000/svg" viewBox="0 0 206.38 45.82"><defs><style>.cls-1{fill:#18181a;}.cls-2{fill:#19191a;}.cls-3{fill:#2c3178;}.cls-4{fill:#ea3091;opacity:0.8;}</style></defs><title>Popsture Logo svg</title><path class="cls-1" d="M68.15,31a11.65,11.65,0,0,1-3.84-.64v6.52l-5.62.85V12.53h5L64,15a7,7,0,0,1,5.24-2.8c3.76,0,6.55,2.83,6.55,9C75.81,28.08,72.17,31,68.15,31Zm-.71-13.77A4.15,4.15,0,0,0,64.31,19V26a5.31,5.31,0,0,0,2.57.56c1.9,0,3.31-1.45,3.31-5C70.19,18.48,69,17.18,67.44,17.18Z" transform="translate(-0.97 -0.74)"/><path class="cls-1" d="M86.76,31.13c-5,0-8.71-3.61-8.71-9.45s3.72-9.53,8.74-9.53,8.79,3.65,8.79,9.49S91.82,31.13,86.76,31.13Zm0-14.36c-2.15,0-3.31,1.9-3.31,4.87s1.19,4.95,3.31,4.95,3.35-2,3.35-4.91S89,16.77,86.79,16.77Z" transform="translate(-0.97 -0.74)"/><path class="cls-1" d="M108,31a11.53,11.53,0,0,1-3.83-.64v6.52l-5.62.85V12.53h4.94l.38,2.42a7,7,0,0,1,5.24-2.8c3.76,0,6.55,2.83,6.55,9C115.67,28.08,112,31,108,31Zm-.71-13.77A4.14,4.14,0,0,0,104.18,19V26a5.25,5.25,0,0,0,2.56.56c1.9,0,3.32-1.45,3.32-5C110.06,18.48,108.9,17.18,107.3,17.18Z" transform="translate(-0.97 -0.74)"/><path class="cls-1" d="M125.57,31.06a16.63,16.63,0,0,1-7.51-1.82l.67-4.28a14,14,0,0,0,6.88,2.15c1.57,0,2.31-.52,2.31-1.37s-.52-1.34-3.09-2c-4.58-1.2-6.51-2.42-6.51-5.85s2.53-5.65,7-5.65a16.67,16.67,0,0,1,6.74,1.34l-.71,4.28a13.38,13.38,0,0,0-6-1.72c-1.34,0-1.93.49-1.93,1.19s.52,1.16,3.08,1.87c4.84,1.3,6.56,2.53,6.56,5.91C133.06,29,130.41,31.06,125.57,31.06Z" transform="translate(-0.97 -0.74)"/><path class="cls-1" d="M143.55,31c-3.91,0-6.62-1.41-6.62-6.06V17.1h-2.42V12.53h2.42V7.09l5.58-.85v6.29H146l.71,4.57h-4.17v7c0,1.49.71,2.16,2.23,2.16a5.11,5.11,0,0,0,1.34-.18l.71,4.61A10.74,10.74,0,0,1,143.55,31Z" transform="translate(-0.97 -0.74)"/><path class="cls-1" d="M160.6,30.76l-.41-2.49c-1.68,1.64-3.43,2.86-5.7,2.86-3.38,0-5.17-2.08-5.17-5.62v-13h5.62V24c0,1.3.56,2.23,1.9,2.23a4.58,4.58,0,0,0,3.09-1.63v-12h5.62V30.76Z" transform="translate(-0.97 -0.74)"/><path class="cls-1" d="M175,20.64V30.76h-5.62V12.53h4.91l.6,3.61c1.11-2.09,2.64-3.8,5.32-4l.93,5.74A8.91,8.91,0,0,0,175,20.64Z" transform="translate(-0.97 -0.74)"/><path class="cls-1" d="M198.82,23.06H187.88c.3,2.86,2,4,4.46,4a12.13,12.13,0,0,0,6-1.9l.55,3.95a13.24,13.24,0,0,1-7.25,2c-5.47,0-9.38-2.9-9.38-9.41,0-6,3.65-9.57,8.59-9.57,5.59,0,8.08,4.17,8.08,9.46A7.76,7.76,0,0,1,198.82,23.06Zm-8.11-7.26c-1.57,0-2.68,1.38-2.87,4.17h5.73C193.39,17.22,192.42,15.8,190.71,15.8Z" transform="translate(-0.97 -0.74)"/><path class="cls-1" d="M120.22,40.76c-1,0-1.63-.35-1.63-1.49V37.34H118V36.22h.59V34.88l1.37-.2v1.54h.85l.17,1.12h-1v1.71c0,.36.17.53.55.53a1.14,1.14,0,0,0,.33,0l.17,1.13A2.41,2.41,0,0,1,120.22,40.76Z" transform="translate(-0.97 -0.74)"/><path class="cls-1" d="M125.92,38.8h-2.68a1,1,0,0,0,1.1,1,3,3,0,0,0,1.47-.47l.13,1a3.22,3.22,0,0,1-1.78.5,2.09,2.09,0,0,1-2.3-2.31A2.11,2.11,0,0,1,124,36.13c1.37,0,2,1,2,2.31A1.66,1.66,0,0,1,125.92,38.8Zm-2-1.78c-.38,0-.65.34-.7,1h1.41C124.59,37.37,124.35,37,123.93,37Z" transform="translate(-0.97 -0.74)"/><path class="cls-1" d="M129.09,40.77a2.07,2.07,0,0,1-2.16-2.28,2.13,2.13,0,0,1,2.22-2.35,2.57,2.57,0,0,1,1.33.34l-.18,1.18a1.76,1.76,0,0,0-1-.33c-.56,0-1,.38-1,1.12s.44,1.15,1,1.15a1.87,1.87,0,0,0,1-.35l.17,1.12A2.58,2.58,0,0,1,129.09,40.77Z" transform="translate(-0.97 -0.74)"/><path class="cls-1" d="M134.32,40.69v-2.8c0-.32-.13-.54-.46-.54a1.12,1.12,0,0,0-.76.4v2.94h-1.38V34.32l1.38-.22v2.67a1.92,1.92,0,0,1,1.34-.64c.83,0,1.26.52,1.26,1.38v3.18Z" transform="translate(-0.97 -0.74)"/><path class="cls-1" d="M141.11,40.76a4.12,4.12,0,0,1-1.84-.44l.16-1a3.43,3.43,0,0,0,1.69.53c.39,0,.57-.13.57-.34s-.13-.33-.76-.49c-1.12-.29-1.6-.59-1.6-1.43s.62-1.39,1.72-1.39a4.08,4.08,0,0,1,1.65.33l-.17,1.05a3.37,3.37,0,0,0-1.47-.42c-.33,0-.48.12-.48.29s.13.29.76.46c1.19.32,1.61.62,1.61,1.45S142.3,40.76,141.11,40.76Z" transform="translate(-0.97 -0.74)"/><path class="cls-1" d="M146,40.76c-1,0-1.62-.35-1.62-1.49V37.34h-.6V36.22h.6V34.88l1.37-.2v1.54h.84l.18,1.12h-1v1.71c0,.36.17.53.54.53a1.14,1.14,0,0,0,.33,0l.18,1.13A2.44,2.44,0,0,1,146,40.76Z" transform="translate(-0.97 -0.74)"/><path class="cls-1" d="M150.62,40.69l-.1-.61a2,2,0,0,1-1.4.7c-.83,0-1.27-.51-1.27-1.38V36.22h1.38V39c0,.32.14.55.47.55a1.12,1.12,0,0,0,.75-.4v-3h1.38v4.47Z" transform="translate(-0.97 -0.74)"/><path class="cls-1" d="M156,40.69l-.09-.58a1.74,1.74,0,0,1-1.28.67c-.92,0-1.62-.69-1.62-2.2,0-1.7.9-2.39,1.89-2.39a2.74,2.74,0,0,1,.95.15v-2l1.38-.22v6.59Zm-.15-3.29a1.28,1.28,0,0,0-.65-.13c-.45,0-.8.35-.8,1.21s.29,1.08.68,1.08a1.08,1.08,0,0,0,.77-.46Z" transform="translate(-0.97 -0.74)"/><path class="cls-1" d="M159.39,35.63a.74.74,0,1,1,0-1.48.74.74,0,1,1,0,1.48Zm-.7,5.06V36.22h1.39v4.47Z" transform="translate(-0.97 -0.74)"/><path class="cls-1" d="M163.43,40.78a2.11,2.11,0,0,1-2.13-2.32,2.16,2.16,0,1,1,2.13,2.32Zm0-3.52c-.53,0-.81.46-.81,1.19s.29,1.22.81,1.22.82-.49.82-1.21S164,37.26,163.44,37.26Z" transform="translate(-0.97 -0.74)"/><path class="cls-2" d="M202.06,12.93v2.72h-.86V12.93h-.95v-.72H203l.12.72Z" transform="translate(-0.97 -0.74)"/><path class="cls-2" d="M206.49,15.65l-.15-2.29-.66,2.3h-.8l-.65-2.3-.15,2.29h-.74l.25-3.44h1.1l.67,2.37.67-2.37h1.07l.25,3.44Z" transform="translate(-0.97 -0.74)"/><rect class="cls-3" x="6.2" y="5.31" width="17.05" height="39.65" transform="translate(-7.44 4.4) rotate(-16.3)"/><circle class="cls-4" cx="30.11" cy="16.89" r="16.89"/></svg>